<svg width="27" height="27" viewBox="0 0 27 27" fill="none" xmlns="http://www.w3.org/2000/svg">
<path d="M0 8.375C0 4.60376 0 2.71815 1.17157 1.54657C2.34315 0.375 4.22876 0.375 8 0.375H18.25C22.0212 0.375 23.9069 0.375 25.0784 1.54657C26.25 2.71815 26.25 4.60376 26.25 8.375V18.625C26.25 22.3962 26.25 24.2819 25.0784 25.4534C23.9069 26.625 22.0212 26.625 18.25 26.625H8C4.22876 26.625 2.34315 26.625 1.17157 25.4534C0 24.2819 0 22.3962 0 18.625V8.375Z" fill="white"/>
<path d="M13.125 6.20831L13.125 20.7916M20.4167 13.5L5.83337 13.5" stroke="#295E60" stroke-width="2" stroke-linejoin="round"/>
</svg>
