<svg width="30" height="30" viewBox="0 0 30 30" fill="none" xmlns="http://www.w3.org/2000/svg">
<g id="Facebook_Logo">
<g id="eva:facebook-fill">
<path id="Vector" d="M21.25 4.37501C21.25 4.20925 21.1842 4.05027 21.0669 3.93306C20.9497 3.81585 20.7908 3.75001 20.625 3.75001H17.5C15.9264 3.67162 14.3857 4.21925 13.2147 5.27323C12.0436 6.32722 11.3372 7.80188 11.25 9.37501V12.75H8.125C7.95924 12.75 7.80027 12.8159 7.68306 12.9331C7.56585 13.0503 7.5 13.2092 7.5 13.375V16.625C7.5 16.7908 7.56585 16.9497 7.68306 17.0669C7.80027 17.1842 7.95924 17.25 8.125 17.25H11.25V25.625C11.25 25.7908 11.3158 25.9497 11.4331 26.0669C11.5503 26.1842 11.7092 26.25 11.875 26.25H15.625C15.7908 26.25 15.9497 26.1842 16.0669 26.0669C16.1842 25.9497 16.25 25.7908 16.25 25.625V17.25H19.525C19.664 17.252 19.7997 17.2076 19.9106 17.1238C20.0215 17.0401 20.1014 16.9217 20.1375 16.7875L21.0375 13.5375C21.0624 13.4452 21.0657 13.3483 21.0473 13.2545C21.0288 13.1607 20.9891 13.0723 20.9311 12.9962C20.8732 12.9201 20.7985 12.8584 20.713 12.8157C20.6274 12.773 20.5331 12.7505 20.4375 12.75H16.25V9.37501C16.2811 9.0656 16.4264 8.7789 16.6575 8.57087C16.8887 8.36285 17.189 8.24845 17.5 8.25001H20.625C20.7908 8.25001 20.9497 8.18416 21.0669 8.06695C21.1842 7.94974 21.25 7.79077 21.25 7.62501V4.37501Z" fill="white"/>
</g>
</g>
</svg>
