<svg width="30" height="27" viewBox="0 0 30 27" fill="none" xmlns="http://www.w3.org/2000/svg">
<path d="M2.90303 1.41999C3.11035 0.735834 3.21401 0.393758 3.47939 0.196879C3.74477 0 4.10221 0 4.81708 0H25.1829C25.8978 0 26.2552 0 26.5206 0.196879C26.786 0.393758 26.8896 0.735833 27.097 1.41999L29.2182 8.41998C29.5761 9.60108 29.755 10.1916 29.4552 10.5958C29.1553 11 28.5383 11 27.3041 11H26.5643C25.0384 11 24.2754 11 23.7305 10.5698C23.7122 10.5554 23.6941 10.5406 23.6763 10.5255C23.1468 10.0765 22.9957 9.3287 22.6935 7.83301V7.83301C22.6194 7.46622 22.5824 7.28282 22.5035 7.28006C22.5012 7.27998 22.4988 7.27998 22.4965 7.28006C22.4176 7.28282 22.3806 7.46622 22.3065 7.83301L22.2442 8.14109C22.0026 9.33698 21.8818 9.93492 21.5128 10.3424C21.379 10.4902 21.2239 10.6171 21.0526 10.719C20.5801 11 19.97 11 18.75 11V11C17.53 11 16.9199 11 16.4474 10.719C16.2761 10.6171 16.121 10.4902 15.9872 10.3424C15.6182 9.93492 15.4974 9.33698 15.2558 8.14109L15.1935 7.83301C15.1194 7.46622 15.0824 7.28282 15.0035 7.28006C15.0012 7.27998 14.9988 7.27998 14.9965 7.28006C14.9176 7.28282 14.8806 7.46622 14.8065 7.83301L14.7442 8.14109C14.5026 9.33698 14.3818 9.93492 14.0128 10.3424C13.879 10.4902 13.7239 10.6171 13.5526 10.719C13.0801 11 12.47 11 11.25 11V11C10.03 11 9.41993 11 8.9474 10.719C8.77609 10.6171 8.62097 10.4902 8.48719 10.3424C8.11817 9.93492 7.99737 9.33698 7.75578 8.14109L7.69354 7.83301C7.61944 7.46622 7.58239 7.28282 7.5035 7.28006C7.50117 7.27998 7.49883 7.27998 7.4965 7.28006C7.41761 7.28282 7.38056 7.46622 7.30646 7.83301V7.83301C7.0043 9.3287 6.85322 10.0765 6.32367 10.5255C6.30587 10.5406 6.28781 10.5554 6.2695 10.5698C5.72456 11 4.96161 11 3.4357 11H2.69587C1.46174 11 0.844669 11 0.544815 10.5958C0.24496 10.1916 0.423914 9.60108 0.781823 8.41999L2.90303 1.41999Z" fill="#E9F279"/>
<path fill-rule="evenodd" clip-rule="evenodd" d="M3.33983 12.5C3.33337 12.8326 3.33337 13.2055 3.33337 13.625V24.125C3.33337 25.0678 3.33337 25.5392 3.62627 25.8321C3.91916 26.125 4.39057 26.125 5.33338 26.125H11.6667V20.25C11.6667 19.6977 12.1144 19.25 12.6667 19.25H17.3334C17.8857 19.25 18.3334 19.6977 18.3334 20.25V26.125H24.6667C25.6095 26.125 26.0809 26.125 26.3738 25.8321C26.6667 25.5392 26.6667 25.0678 26.6667 24.125V13.625C26.6667 13.2055 26.6667 12.8326 26.6603 12.5H26.5643L26.4886 12.5C25.791 12.5001 25.1412 12.5002 24.6014 12.4356C24.0031 12.364 23.372 12.1978 22.8011 11.7472C22.7691 11.7219 22.7375 11.696 22.7063 11.6696C22.6335 11.6079 22.5653 11.5442 22.5013 11.4788C22.2969 11.6825 22.0679 11.8604 21.8194 12.0082C21.3201 12.3051 20.8059 12.4116 20.3257 12.4579C19.8887 12.5001 19.3684 12.5 18.8102 12.5L18.75 12.5L18.6899 12.5C18.1317 12.5 17.6114 12.5001 17.1744 12.4579C16.6942 12.4116 16.1799 12.3051 15.6807 12.0082C15.4327 11.8607 15.2042 11.6833 15 11.48C14.7959 11.6833 14.5673 11.8607 14.3194 12.0082C13.8201 12.3051 13.3059 12.4116 12.8257 12.4579C12.3887 12.5001 11.8684 12.5 11.3102 12.5L11.25 12.5L11.1899 12.5C10.6317 12.5 10.1114 12.5001 9.67437 12.4579C9.19418 12.4116 8.67993 12.3051 8.18072 12.0082C7.93223 11.8604 7.70321 11.6825 7.49877 11.4788C7.43477 11.5442 7.36656 11.6079 7.29374 11.6696C7.26259 11.696 7.23099 11.7219 7.19893 11.7472C6.62807 12.1978 5.99701 12.364 5.39863 12.4356C4.85889 12.5002 4.2091 12.5001 3.51146 12.5H3.51146L3.43574 12.5H3.33983ZM13.6667 21.25V26.125H16.3334V21.25H13.6667Z" fill="#E9F279"/>
</svg>
