<svg width="30" height="27" viewBox="0 0 30 27" fill="none" xmlns="http://www.w3.org/2000/svg">
<path d="M2.90303 1.54499C3.11035 0.860834 3.21401 0.518758 3.47939 0.321879C3.74477 0.125 4.10221 0.125 4.81708 0.125H25.1829C25.8978 0.125 26.2552 0.125 26.5206 0.321879C26.786 0.518758 26.8896 0.860833 27.097 1.54499L29.2182 8.54498C29.5761 9.72608 29.755 10.3166 29.4552 10.7208C29.1553 11.125 28.5383 11.125 27.3041 11.125H26.5643C25.0384 11.125 24.2754 11.125 23.7305 10.6948C23.7122 10.6804 23.6941 10.6656 23.6763 10.6505C23.1468 10.2015 22.9957 9.4537 22.6935 7.95801V7.95801C22.6194 7.59122 22.5824 7.40782 22.5035 7.40506C22.5012 7.40498 22.4988 7.40498 22.4965 7.40506C22.4176 7.40782 22.3806 7.59122 22.3065 7.95801L22.2442 8.26609C22.0026 9.46198 21.8818 10.0599 21.5128 10.4674C21.379 10.6152 21.2239 10.7421 21.0526 10.844C20.5801 11.125 19.97 11.125 18.75 11.125V11.125C17.53 11.125 16.9199 11.125 16.4474 10.844C16.2761 10.7421 16.121 10.6152 15.9872 10.4674C15.6182 10.0599 15.4974 9.46198 15.2558 8.26609L15.1935 7.95801C15.1194 7.59122 15.0824 7.40782 15.0035 7.40506C15.0012 7.40498 14.9988 7.40498 14.9965 7.40506C14.9176 7.40782 14.8806 7.59122 14.8065 7.95801L14.7442 8.26609C14.5026 9.46198 14.3818 10.0599 14.0128 10.4674C13.879 10.6152 13.7239 10.7421 13.5526 10.844C13.0801 11.125 12.47 11.125 11.25 11.125V11.125C10.03 11.125 9.41993 11.125 8.9474 10.844C8.77609 10.7421 8.62097 10.6152 8.48719 10.4674C8.11817 10.0599 7.99737 9.46198 7.75578 8.26609L7.69354 7.95801C7.61944 7.59122 7.58239 7.40782 7.5035 7.40506C7.50117 7.40498 7.49883 7.40498 7.4965 7.40506C7.41761 7.40782 7.38056 7.59122 7.30646 7.95801V7.95801C7.0043 9.4537 6.85322 10.2015 6.32367 10.6505C6.30587 10.6656 6.28781 10.6804 6.2695 10.6948C5.72456 11.125 4.96161 11.125 3.4357 11.125H2.69587C1.46174 11.125 0.844669 11.125 0.544815 10.7208C0.24496 10.3166 0.423914 9.72608 0.781823 8.54499L2.90303 1.54499Z" fill="white"/>
<path fill-rule="evenodd" clip-rule="evenodd" d="M3.33983 12.625C3.33337 12.9576 3.33337 13.3305 3.33337 13.75V24.25C3.33337 25.1928 3.33337 25.6642 3.62627 25.9571C3.91916 26.25 4.39057 26.25 5.33338 26.25H11.6667V20.375C11.6667 19.8227 12.1144 19.375 12.6667 19.375H17.3334C17.8857 19.375 18.3334 19.8227 18.3334 20.375V26.25H24.6667C25.6095 26.25 26.0809 26.25 26.3738 25.9571C26.6667 25.6642 26.6667 25.1928 26.6667 24.25V13.75C26.6667 13.3305 26.6667 12.9576 26.6603 12.625H26.5643L26.4886 12.625C25.791 12.6251 25.1412 12.6252 24.6014 12.5606C24.0031 12.489 23.372 12.3228 22.8011 11.8722C22.7691 11.8469 22.7375 11.821 22.7063 11.7946C22.6335 11.7329 22.5653 11.6692 22.5013 11.6038C22.2969 11.8075 22.0679 11.9854 21.8194 12.1332C21.3201 12.4301 20.8059 12.5366 20.3257 12.5829C19.8887 12.6251 19.3684 12.625 18.8102 12.625L18.75 12.625L18.6899 12.625C18.1317 12.625 17.6114 12.6251 17.1744 12.5829C16.6942 12.5366 16.1799 12.4301 15.6807 12.1332C15.4327 11.9857 15.2042 11.8083 15 11.605C14.7959 11.8083 14.5673 11.9857 14.3194 12.1332C13.8201 12.4301 13.3059 12.5366 12.8257 12.5829C12.3887 12.6251 11.8684 12.625 11.3102 12.625L11.25 12.625L11.1899 12.625C10.6317 12.625 10.1114 12.6251 9.67437 12.5829C9.19418 12.5366 8.67993 12.4301 8.18072 12.1332C7.93223 11.9854 7.70321 11.8075 7.49877 11.6038C7.43477 11.6692 7.36656 11.7329 7.29374 11.7946C7.26259 11.821 7.23099 11.8469 7.19893 11.8722C6.62807 12.3228 5.99701 12.489 5.39863 12.5606C4.85889 12.6252 4.2091 12.6251 3.51146 12.625H3.51146L3.43574 12.625H3.33983ZM13.6667 21.375V26.25H16.3334V21.375H13.6667Z" fill="white"/>
</svg>
