<svg width="30" height="30" viewBox="0 0 30 30" fill="none" xmlns="http://www.w3.org/2000/svg">
<g id="Instagram_Logo">
<g id="ant-design:instagram-filled">
<path id="Vector" d="M14.9999 11.0947C12.8495 11.0947 11.0946 12.8496 11.0946 15C11.0946 17.1504 12.8495 18.9053 14.9999 18.9053C17.1503 18.9053 18.9052 17.1504 18.9052 15C18.9052 12.8496 17.1503 11.0947 14.9999 11.0947ZM26.7128 15C26.7128 13.3828 26.7274 11.7803 26.6366 10.166C26.5458 8.29102 26.1181 6.62695 24.747 5.25586C23.3729 3.88184 21.7118 3.45703 19.8368 3.36621C18.2196 3.27539 16.6171 3.29004 15.0028 3.29004C13.3856 3.29004 11.7831 3.27539 10.1688 3.36621C8.29384 3.45703 6.62978 3.88477 5.25868 5.25586C3.88466 6.62988 3.45986 8.29102 3.36904 10.166C3.27822 11.7832 3.29286 13.3857 3.29286 15C3.29286 16.6143 3.27822 18.2197 3.36904 19.834C3.45986 21.709 3.88759 23.373 5.25868 24.7441C6.63271 26.1182 8.29384 26.543 10.1688 26.6338C11.786 26.7246 13.3886 26.71 15.0028 26.71C16.62 26.71 18.2226 26.7246 19.8368 26.6338C21.7118 26.543 23.3759 26.1152 24.747 24.7441C26.121 23.3701 26.5458 21.709 26.6366 19.834C26.7304 18.2197 26.7128 16.6172 26.7128 15ZM14.9999 21.0088C11.6747 21.0088 8.99111 18.3252 8.99111 15C8.99111 11.6748 11.6747 8.99121 14.9999 8.99121C18.3251 8.99121 21.0087 11.6748 21.0087 15C21.0087 18.3252 18.3251 21.0088 14.9999 21.0088ZM21.2548 10.1484C20.4784 10.1484 19.8515 9.52149 19.8515 8.74512C19.8515 7.96875 20.4784 7.3418 21.2548 7.3418C22.0311 7.3418 22.6581 7.96875 22.6581 8.74512C22.6583 8.92947 22.6222 9.11206 22.5517 9.28242C22.4813 9.45278 22.3779 9.60758 22.2476 9.73793C22.1172 9.86829 21.9624 9.97165 21.7921 10.0421C21.6217 10.1125 21.4391 10.1487 21.2548 10.1484Z" fill="white"/>
</g>
</g>
</svg>
